# xmcd CD database file
#
# Track frame offsets:
#	150
#	20875
#	35455
#	56747
#	80695
#	101340
#	113825
#	133647
#
# Disc length: 2044 seconds
#
# Revision: 0
# Processed by: cddbd v1.5.1PL0 Copyright (c) Steve Scherf et al.
# Submitted via: CDex 1.51
#
DISCID=6807fa08
DTITLE=Vari - I COLORI DELLA VITA - Il viaggio
DYEAR=2005
DGENRE=New Age
TTITLE0=Renato Zero - Il carrozzone
TTITLE1=GinoPaoli - Ti lascio una canzone
TTITLE2=Lucio Dalla - Il gigante e la bambina
TTITLE3=Fabrizio De Andrè - Fiume Sand Creek
TTITLE4=Daniele Silvestri - L'autostrada
TTITLE5=Luigi Tenco - Lontano, lontano
TTITLE6=Francesco De Gregori - Pablo
TTITLE7=Mia Martini - Inno
EXTD=YEAR: 2005
EXTT0=
EXTT1=
EXTT2=
EXTT3=
EXTT4=
EXTT5=
EXTT6=
EXTT7=
PLAYORDER=
